<?xml version="1.0" encoding="utf-8"?>
<!-- Generator: Adobe Illustrator 19.0.0, SVG Export Plug-In . SVG Version: 6.00 Build 0)  -->
<svg version="1.1" xmlns="http://www.w3.org/2000/svg" xmlns:xlink="http://www.w3.org/1999/xlink" x="0px" y="0px"
	 viewBox="0 0 864 864" style="enable-background:new 0 0 864 864;" xml:space="preserve">
<style type="text/css">
	.st0{display:none;}
	.st1{display:inline;fill:#231815;stroke:#231815;stroke-miterlimit:10;}
	.st2{fill:none;}
	.st3{fill:none;stroke:#FFFFFF;stroke-width:7;stroke-miterlimit:10;}
</style>
<g id="Layer_2" class="st0">
	<rect x="-176.6" y="-153.2" class="st1" width="1625.7" height="1211.8"/>
</g>
<g id="Layer_1">
	<g>
		<path class="st2" d="M433.2,206"/>
	</g>
	<g>
		<path class="st3" d="M574.7,408c-11.4,5-22.2,10.1-32.4,15.3c-215,110-167.5,275-73.1,355.9c19.8,17,44.2,18.9,68.4,9.8
			c12.2-4.6,24.4-12.1,35.9-21.8c0,0,0,0,0.1-0.1"/>
		<path class="st3" d="M631.3,679.5c0-0.1,0-0.1,0-0.2c8.2-23.7,12.7-49.7,11.8-76.7c0,0,0-0.1,0-0.1
			c-1.8-59.8-29.7-124.4-101-179.2c-8.2-6.3-17-12.5-26.4-18.6C358.1,303.3,301.7,205,283.1,145.4c-12.5-40-7.8-62.6-5.3-57
			c1.3,2.9,3.2,24.5,5.3,57c8.2,125.5,20.4,413.3,20.4,413.3"/>
		<path class="st3" d="M515.1,796.9c-26.4,5.9-53.8,9-82,9C225,805.9,56.3,637.1,56.3,429C56.3,220.9,225,52.1,433.1,52.1
			c189,0,345.5,139.2,372.7,320.6"/>
		<path class="st3" d="M643.2,602.6c0,0,0,0.1,0,0.1"/>
		<path class="st3" d="M631.4,679.3c0,0.1,0,0.1-0.1,0.2c-13.3,42.3-35.8,69.8-57.9,87.5c0,0,0,0-0.1,0.1
			c-12.7,10.1-25.2,17.1-35.9,21.8c0,0-0.1,0-0.1,0.1c-16.8,7.4-28.8,9.3-28.8,9.3"/>
	</g>
</g>
</svg>
